# xmcd
#
# Track frame offsets: 
#        150
#        12021
#        25002
#        36924
#        53019
#        66664
#        80093
#        93764
#        106095
#        120897
#        133712
#        146610
#        159761
#        171496
#        182467
#        193049
#        205793
#        217672
#        229396
#        244875
#        256963
#        269510
#
# Disc length: 3773 seconds
#
# Revision: 0
# Processed by: cddbd v1.5.2PL0 Copyright (c) Steve Scherf et al.
# Submitted via: ExactAudioCopy v0.99pb4
#
DISCID=290ebb16
DTITLE=Sonny Boy Williamson - BD Blues [CD2] Chicago 1955-1957
DYEAR=2008
DGENRE=Blues
TTITLE0=Don't Start Me To Talkin'
TTITLE1=All My Love In Vain
TTITLE2=Good Evening Everybody
TTITLE3=You Killing Me (On My Feet)
TTITLE4=Your Imagination
TTITLE5=Let Me Explain
TTITLE6=I Wonder Why
TTITLE7=I Know What Love Is All About
TTITLE8=The Key (To Your Door)
TTITLE9=Keep It To Yourself
TTITLE10=Please Forgive
TTITLE11=Have You Ever Been In Love
TTITLE12=Hurts Me So Much
TTITLE13=I Don't Know
TTITLE14=Fattening Frogs For Snakes
TTITLE15=Like Wolf
TTITLE16=This Is My Apartment
TTITLE17=Born Blind
TTITLE18=Cross My Heart
TTITLE19=Ninety Nine
TTITLE20=Dissatisfied
TTITLE21=Unseen Eye
EXTD=
EXTT0=
EXTT1=
EXTT2=
EXTT3=
EXTT4=
EXTT5=
EXTT6=
EXTT7=
EXTT8=
EXTT9=
EXTT10=
EXTT11=
EXTT12=
EXTT13=
EXTT14=
EXTT15=
EXTT16=
EXTT17=
EXTT18=
EXTT19=
EXTT20=
EXTT21=
PLAYORDER=
